<svg width="193" height="216" viewBox="0 0 193 216" fill="none" xmlns="http://www.w3.org/2000/svg">
<g filter="url(#filter0_dd_1_121)">
<path d="M41.1877 87.8464C41.1877 51.3015 66.1245 21.6731 96.1877 21.6731C126.251 21.6731 151.188 51.3015 151.188 87.8464C151.188 105.937 144.884 122.32 135.084 134.246L96.1877 150.005L57.2915 134.246C47.492 122.32 41.1877 105.937 41.1877 87.8464ZM72.219 87.8464C72.219 103.413 82.8072 116.398 96.1877 116.398C109.568 116.398 120.156 103.413 120.156 87.8464C120.156 72.2794 109.568 59.2948 96.1877 59.2948C82.8072 59.2948 72.219 72.2794 72.219 87.8464Z" fill="url(#paint0_linear_1_121)" stroke="url(#paint1_linear_1_121)" stroke-width="2"/>
<path d="M41.1877 87.8464C41.1877 51.3015 66.1245 21.6731 96.1877 21.6731C126.251 21.6731 151.188 51.3015 151.188 87.8464C151.188 105.937 144.884 122.32 135.084 134.246L96.1877 150.005L57.2915 134.246C47.492 122.32 41.1877 105.937 41.1877 87.8464ZM72.219 87.8464C72.219 103.413 82.8072 116.398 96.1877 116.398C109.568 116.398 120.156 103.413 120.156 87.8464C120.156 72.2794 109.568 59.2948 96.1877 59.2948C82.8072 59.2948 72.219 72.2794 72.219 87.8464Z" fill="url(#paint2_linear_1_121)" stroke="url(#paint3_linear_1_121)" stroke-width="2"/>
<path d="M96.1878 135.077C86.344 135.077 86.344 127.206 76.5003 127.206C66.6565 127.206 66.6565 135.156 56.6813 135.077C66.7878 147.2 80.7659 155.02 96.1878 155.02C111.61 155.02 125.588 147.2 135.694 135.077C125.719 135.156 125.785 127.206 115.875 127.206C106.032 127.206 106.032 135.077 96.1878 135.077ZM65.6951 100.807C64.4135 99.2699 62.3369 99.2699 61.0552 100.807C59.7736 102.345 59.7736 104.836 61.0552 106.373L67.6177 114.245C68.8996 115.782 70.976 115.782 72.2576 114.245C73.5393 112.707 73.5393 110.217 72.2576 108.679L65.6951 100.807ZM96.1878 52.4229H109.313C111.126 52.4229 112.594 50.6625 112.594 48.4869C112.594 46.3114 111.126 44.551 109.313 44.551H96.1878C94.3741 44.551 92.9065 46.3114 92.9065 48.4869C92.9065 50.6625 94.3741 52.4229 96.1878 52.4229ZM124.758 114.245L131.32 106.373C132.602 104.835 132.602 102.344 131.32 100.807C130.038 99.2696 127.962 99.2696 126.68 100.807L120.118 108.679C118.836 110.216 118.836 112.707 120.118 114.245C121.4 115.782 123.476 115.782 124.758 114.245ZM126.68 74.8852C127.962 76.4226 130.039 76.4226 131.32 74.8852C132.602 73.3479 132.602 70.8569 131.32 69.3196L124.758 61.4477C123.476 59.9103 121.4 59.9103 120.118 61.4477C118.836 62.9851 118.836 65.476 120.118 67.0134L126.68 74.8852ZM65.6951 74.8852L72.2576 67.0134C73.5393 65.476 73.5393 62.9851 72.2576 61.4477C70.976 59.9103 68.8994 59.9103 67.6177 61.4477L61.0552 69.3196C59.7736 70.8569 59.7736 73.3479 61.0552 74.8852C62.3371 76.4229 64.4135 76.4229 65.6951 74.8852ZM83.063 52.2355C84.8751 52.2355 86.3442 50.4733 86.3442 48.2996C86.3442 46.1259 84.8751 44.3636 83.063 44.3636C81.2509 44.3636 79.7817 46.1259 79.7817 48.2996C79.7817 50.4733 81.2506 52.2355 83.063 52.2355ZM60.0942 87.6589C60.0942 85.4852 58.6251 83.723 56.813 83.723C55.0009 83.723 53.5317 85.4852 53.5317 87.6589C53.5317 89.8326 55.0009 91.5948 56.813 91.5948C58.6251 91.5948 60.0942 89.8326 60.0942 87.6589ZM135.563 83.723C133.751 83.723 132.282 85.4852 132.282 87.6589C132.282 89.8326 133.751 91.5948 135.563 91.5948C137.375 91.5948 138.844 89.8326 138.844 87.6589C138.844 85.4852 137.375 83.723 135.563 83.723Z" fill="white"/>
</g>
<defs>
<filter id="filter0_dd_1_121" x="0.187744" y="0.673096" width="192" height="214.347" filterUnits="userSpaceOnUse" color-interpolation-filters="sRGB">
<feFlood flood-opacity="0" result="BackgroundImageFix"/>
<feColorMatrix in="SourceAlpha" type="matrix" values="0 0 0 0 0 0 0 0 0 0 0 0 0 0 0 0 0 0 127 0" result="hardAlpha"/>
<feOffset dy="20"/>
<feGaussianBlur stdDeviation="20"/>
<feColorMatrix type="matrix" values="0 0 0 0 1 0 0 0 0 0.680498 0 0 0 0 0 0 0 0 0.29 0"/>
<feBlend mode="normal" in2="BackgroundImageFix" result="effect1_dropShadow_1_121"/>
<feColorMatrix in="SourceAlpha" type="matrix" values="0 0 0 0 0 0 0 0 0 0 0 0 0 0 0 0 0 0 127 0" result="hardAlpha"/>
<feOffset dy="5"/>
<feGaussianBlur stdDeviation="5"/>
<feColorMatrix type="matrix" values="0 0 0 0 1 0 0 0 0 0.680498 0 0 0 0 0 0 0 0 0.26 0"/>
<feBlend mode="normal" in2="effect1_dropShadow_1_121" result="effect2_dropShadow_1_121"/>
<feBlend mode="normal" in="SourceGraphic" in2="effect2_dropShadow_1_121" result="shape"/>
</filter>
<linearGradient id="paint0_linear_1_121" x1="96.1877" y1="-29.1653" x2="96.1877" y2="194.692" gradientUnits="userSpaceOnUse">
<stop stop-color="#FFAE00"/>
<stop offset="1" stop-color="#FFCD1E"/>
</linearGradient>
<linearGradient id="paint1_linear_1_121" x1="96.1877" y1="20.6731" x2="96.1877" y2="151.084" gradientUnits="userSpaceOnUse">
<stop stop-color="#FF9F00"/>
<stop offset="1" stop-color="#FFB800"/>
</linearGradient>
<linearGradient id="paint2_linear_1_121" x1="96.1877" y1="-29.1653" x2="96.1877" y2="194.692" gradientUnits="userSpaceOnUse">
<stop offset="0.630208" stop-color="#FFAE00"/>
<stop offset="1" stop-color="#FFCD1E"/>
</linearGradient>
<linearGradient id="paint3_linear_1_121" x1="96.1877" y1="20.6731" x2="96.1877" y2="151.084" gradientUnits="userSpaceOnUse">
<stop stop-color="#FF9F00"/>
<stop offset="1" stop-color="#FFB800"/>
</linearGradient>
</defs>
</svg>
