<svg width="193" height="216" viewBox="0 0 193 216" fill="none" xmlns="http://www.w3.org/2000/svg">
<g filter="url(#filter0_dd_1_139)">
<path d="M41.5939 87.8464C41.5939 51.3015 66.5307 21.6731 96.5939 21.6731C126.657 21.6731 151.594 51.3015 151.594 87.8464C151.594 105.937 145.29 122.32 135.49 134.246L96.5939 150.005L57.6976 134.246C47.8981 122.32 41.5939 105.937 41.5939 87.8464ZM72.6251 87.8464C72.6251 103.413 83.2133 116.398 96.5939 116.398C109.974 116.398 120.563 103.413 120.563 87.8464C120.563 72.2794 109.974 59.2948 96.5939 59.2948C83.2133 59.2948 72.6251 72.2794 72.6251 87.8464Z" fill="url(#paint0_linear_1_139)" stroke="url(#paint1_linear_1_139)" stroke-width="2"/>
<path d="M41.5939 87.8464C41.5939 51.3015 66.5307 21.6731 96.5939 21.6731C126.657 21.6731 151.594 51.3015 151.594 87.8464C151.594 105.937 145.29 122.32 135.49 134.246L96.5939 150.005L57.6976 134.246C47.8981 122.32 41.5939 105.937 41.5939 87.8464ZM72.6251 87.8464C72.6251 103.413 83.2133 116.398 96.5939 116.398C109.974 116.398 120.563 103.413 120.563 87.8464C120.563 72.2794 109.974 59.2948 96.5939 59.2948C83.2133 59.2948 72.6251 72.2794 72.6251 87.8464Z" fill="url(#paint2_linear_1_139)" stroke="url(#paint3_linear_1_139)" stroke-width="2"/>
<path d="M96.5939 135.077C86.7501 135.077 86.7501 127.206 76.9064 127.206C67.0626 127.206 67.0626 135.156 57.0874 135.077C67.1939 147.2 81.172 155.02 96.5939 155.02C112.016 155.02 125.994 147.2 136.1 135.077C126.125 135.156 126.191 127.206 116.281 127.206C106.438 127.206 106.438 135.077 96.5939 135.077ZM66.1012 100.807C64.8196 99.2699 62.743 99.2699 61.4613 100.807C60.1797 102.345 60.1797 104.836 61.4613 106.373L68.0238 114.245C69.3057 115.782 71.3821 115.782 72.6637 114.245C73.9454 112.707 73.9454 110.217 72.6637 108.679L66.1012 100.807ZM96.5939 52.4229H109.719C111.533 52.4229 113 50.6625 113 48.4869C113 46.3114 111.533 44.551 109.719 44.551H96.5939C94.7802 44.551 93.3126 46.3114 93.3126 48.4869C93.3126 50.6625 94.7802 52.4229 96.5939 52.4229ZM125.164 114.245L131.726 106.373C133.008 104.835 133.008 102.344 131.726 100.807C130.445 99.2696 128.368 99.2696 127.086 100.807L120.524 108.679C119.242 110.216 119.242 112.707 120.524 114.245C121.806 115.782 123.882 115.782 125.164 114.245ZM127.087 74.8852C128.368 76.4226 130.445 76.4226 131.726 74.8852C133.008 73.3479 133.008 70.8569 131.726 69.3196L125.164 61.4477C123.882 59.9103 121.806 59.9103 120.524 61.4477C119.242 62.9851 119.242 65.476 120.524 67.0134L127.087 74.8852ZM66.1012 74.8852L72.6637 67.0134C73.9454 65.476 73.9454 62.9851 72.6637 61.4477C71.3821 59.9103 69.3055 59.9103 68.0238 61.4477L61.4613 69.3196C60.1797 70.8569 60.1797 73.3479 61.4613 74.8852C62.7432 76.4229 64.8196 76.4229 66.1012 74.8852ZM83.4691 52.2355C85.2812 52.2355 86.7504 50.4733 86.7504 48.2996C86.7504 46.1259 85.2812 44.3636 83.4691 44.3636C81.657 44.3636 80.1879 46.1259 80.1879 48.2996C80.1879 50.4733 81.6568 52.2355 83.4691 52.2355ZM60.5004 87.6589C60.5004 85.4852 59.0312 83.723 57.2191 83.723C55.407 83.723 53.9379 85.4852 53.9379 87.6589C53.9379 89.8326 55.407 91.5948 57.2191 91.5948C59.0312 91.5948 60.5004 89.8326 60.5004 87.6589ZM135.969 83.723C134.157 83.723 132.688 85.4852 132.688 87.6589C132.688 89.8326 134.157 91.5948 135.969 91.5948C137.781 91.5948 139.25 89.8326 139.25 87.6589C139.25 85.4852 137.781 83.723 135.969 83.723Z" fill="white"/>
</g>
<defs>
<filter id="filter0_dd_1_139" x="0.593872" y="0.673096" width="192" height="214.347" filterUnits="userSpaceOnUse" color-interpolation-filters="sRGB">
<feFlood flood-opacity="0" result="BackgroundImageFix"/>
<feColorMatrix in="SourceAlpha" type="matrix" values="0 0 0 0 0 0 0 0 0 0 0 0 0 0 0 0 0 0 127 0" result="hardAlpha"/>
<feOffset dy="20"/>
<feGaussianBlur stdDeviation="20"/>
<feColorMatrix type="matrix" values="0 0 0 0 1 0 0 0 0 0.680498 0 0 0 0 0 0 0 0 0.29 0"/>
<feBlend mode="normal" in2="BackgroundImageFix" result="effect1_dropShadow_1_139"/>
<feColorMatrix in="SourceAlpha" type="matrix" values="0 0 0 0 0 0 0 0 0 0 0 0 0 0 0 0 0 0 127 0" result="hardAlpha"/>
<feOffset dy="5"/>
<feGaussianBlur stdDeviation="5"/>
<feColorMatrix type="matrix" values="0 0 0 0 1 0 0 0 0 0.680498 0 0 0 0 0 0 0 0 0.26 0"/>
<feBlend mode="normal" in2="effect1_dropShadow_1_139" result="effect2_dropShadow_1_139"/>
<feBlend mode="normal" in="SourceGraphic" in2="effect2_dropShadow_1_139" result="shape"/>
</filter>
<linearGradient id="paint0_linear_1_139" x1="96.5939" y1="-29.1653" x2="96.5939" y2="194.692" gradientUnits="userSpaceOnUse">
<stop stop-color="#FFAE00"/>
<stop offset="1" stop-color="#FFCD1E"/>
</linearGradient>
<linearGradient id="paint1_linear_1_139" x1="96.5939" y1="20.6731" x2="96.5939" y2="151.084" gradientUnits="userSpaceOnUse">
<stop stop-color="#FF9F00"/>
<stop offset="1" stop-color="#FFB800"/>
</linearGradient>
<linearGradient id="paint2_linear_1_139" x1="96.5939" y1="-29.1653" x2="96.5939" y2="194.692" gradientUnits="userSpaceOnUse">
<stop offset="0.630208" stop-color="#FFAE00"/>
<stop offset="1" stop-color="#FFCD1E"/>
</linearGradient>
<linearGradient id="paint3_linear_1_139" x1="96.5939" y1="20.6731" x2="96.5939" y2="151.084" gradientUnits="userSpaceOnUse">
<stop stop-color="#FF9F00"/>
<stop offset="1" stop-color="#FFB800"/>
</linearGradient>
</defs>
</svg>
