<svg width="153" height="216" viewBox="0 0 153 216" fill="none" xmlns="http://www.w3.org/2000/svg">
<g filter="url(#filter0_dd_1_115)">
<path d="M42.4738 153.824L42.4695 153.822C41.6492 153.415 41 152.37 41 151.082V24.609C41 22.8077 42.1825 21.6731 43.2812 21.6731H108.906C110.005 21.6731 111.188 22.8077 111.188 24.609V151.082C111.188 152.37 110.538 153.416 109.718 153.823L109.712 153.825C108.971 154.2 108.038 154.044 107.354 153.225C104.747 150.096 99.9411 150.096 97.3332 153.225C96.8681 153.783 96.3026 154.018 95.7814 154.018C95.2601 154.018 94.6946 153.783 94.2295 153.225C91.6215 150.096 86.8161 150.096 84.2082 153.225C83.7431 153.783 83.1776 154.018 82.6564 154.018C82.1351 154.018 81.5696 153.783 81.1045 153.225C78.4965 150.096 73.6911 150.096 71.0832 153.225C70.6181 153.783 70.0526 154.018 69.5314 154.018C69.0101 154.018 68.4446 153.783 67.9795 153.225C65.3715 150.096 60.5661 150.096 57.9582 153.225C57.4931 153.783 56.9276 154.018 56.4064 154.018C55.8851 154.018 55.3196 153.783 54.8545 153.225C52.2466 150.097 47.4412 150.096 44.8332 153.224C44.1573 154.035 43.234 154.206 42.4738 153.824Z" fill="url(#paint0_linear_1_115)" stroke="url(#paint1_linear_1_115)" stroke-width="2"/>
<path d="M76.0937 63.0197C74.2864 63.0197 72.8125 61.2553 72.8125 59.0837C72.8125 56.9121 74.2864 55.1478 76.0937 55.1478C77.9011 55.1478 79.375 56.9121 79.375 59.0837C79.375 61.2592 80.8426 63.0197 82.6562 63.0197C84.4699 63.0197 85.9375 61.2592 85.9375 59.0837C85.9375 53.9591 83.1865 49.6312 79.375 48.0009V43.34C79.375 41.1645 77.9074 39.4041 76.0937 39.4041C74.2801 39.4041 72.8125 41.1645 72.8125 43.34V48.0009C69.001 49.6312 66.25 53.9591 66.25 59.0837C66.25 65.5948 70.6657 70.8915 76.0937 70.8915C77.9011 70.8915 79.375 72.6559 79.375 74.8274C79.375 76.999 77.9011 78.7634 76.0937 78.7634C74.2864 78.7634 72.8125 76.999 72.8125 74.8274C72.8125 72.6519 71.3449 70.8915 69.5312 70.8915C67.7176 70.8915 66.25 72.6519 66.25 74.8274C66.25 79.952 69.001 84.28 72.8125 85.9102V90.5712C72.8125 92.7467 74.2801 94.5071 76.0937 94.5071C77.9074 94.5071 79.375 92.7467 79.375 90.5712V85.9102C83.1865 84.2802 85.9375 79.952 85.9375 74.8274C85.9375 68.3164 81.522 63.0197 76.0937 63.0197ZM76.0937 102.379H56.4062C54.5926 102.379 53.125 104.139 53.125 106.315C53.125 108.49 54.5926 110.251 56.4062 110.251H76.0937C77.9074 110.251 79.375 108.49 79.375 106.315C79.375 104.139 77.9074 102.379 76.0937 102.379ZM76.0937 118.123H56.4062C54.5926 118.123 53.125 119.883 53.125 122.059C53.125 124.234 54.5926 125.995 56.4062 125.995H76.0937C77.9074 125.995 79.375 124.234 79.375 122.059C79.375 119.883 77.9074 118.123 76.0937 118.123ZM89.2187 110.251H95.7812C97.5949 110.251 99.0625 108.49 99.0625 106.315C99.0625 104.139 97.5949 102.379 95.7812 102.379H89.2187C87.4051 102.379 85.9375 104.139 85.9375 106.315C85.9375 108.49 87.4051 110.251 89.2187 110.251ZM95.7812 118.123H89.2187C87.4051 118.123 85.9375 119.883 85.9375 122.059C85.9375 124.234 87.4051 125.995 89.2187 125.995H95.7812C97.5949 125.995 99.0625 124.234 99.0625 122.059C99.0625 119.883 97.5949 118.123 95.7812 118.123Z" fill="white"/>
</g>
<defs>
<filter id="filter0_dd_1_115" x="0" y="0.673096" width="152.188" height="214.347" filterUnits="userSpaceOnUse" color-interpolation-filters="sRGB">
<feFlood flood-opacity="0" result="BackgroundImageFix"/>
<feColorMatrix in="SourceAlpha" type="matrix" values="0 0 0 0 0 0 0 0 0 0 0 0 0 0 0 0 0 0 127 0" result="hardAlpha"/>
<feOffset dy="20"/>
<feGaussianBlur stdDeviation="20"/>
<feColorMatrix type="matrix" values="0 0 0 0 1 0 0 0 0 0.680498 0 0 0 0 0 0 0 0 0.29 0"/>
<feBlend mode="normal" in2="BackgroundImageFix" result="effect1_dropShadow_1_115"/>
<feColorMatrix in="SourceAlpha" type="matrix" values="0 0 0 0 0 0 0 0 0 0 0 0 0 0 0 0 0 0 127 0" result="hardAlpha"/>
<feOffset dy="5"/>
<feGaussianBlur stdDeviation="5"/>
<feColorMatrix type="matrix" values="0 0 0 0 1 0 0 0 0 0.680498 0 0 0 0 0 0 0 0 0.26 0"/>
<feBlend mode="normal" in2="effect1_dropShadow_1_115" result="effect2_dropShadow_1_115"/>
<feBlend mode="normal" in="SourceGraphic" in2="effect2_dropShadow_1_115" result="shape"/>
</filter>
<linearGradient id="paint0_linear_1_115" x1="76.0939" y1="-30.6695" x2="76.0939" y2="199.944" gradientUnits="userSpaceOnUse">
<stop offset="0.630208" stop-color="#FFAE00"/>
<stop offset="1" stop-color="#FFCD1E"/>
</linearGradient>
<linearGradient id="paint1_linear_1_115" x1="76.0939" y1="20.6731" x2="76.0939" y2="155.02" gradientUnits="userSpaceOnUse">
<stop stop-color="#FF9F00"/>
<stop offset="1" stop-color="#FFB800"/>
</linearGradient>
</defs>
</svg>
