<svg width="153" height="216" viewBox="0 0 153 216" fill="none" xmlns="http://www.w3.org/2000/svg">
<g filter="url(#filter0_dd_1_97)">
<path d="M42.9738 153.824L42.9695 153.822C42.1492 153.415 41.5 152.37 41.5 151.082V24.609C41.5 22.8077 42.6825 21.6731 43.7812 21.6731H109.406C110.505 21.6731 111.688 22.8077 111.688 24.609V151.082C111.688 152.37 111.038 153.416 110.218 153.823L110.212 153.825C109.471 154.2 108.538 154.044 107.854 153.225C105.247 150.096 100.441 150.096 97.8332 153.225C97.3681 153.783 96.8026 154.018 96.2814 154.018C95.7601 154.018 95.1946 153.783 94.7295 153.225C92.1215 150.096 87.3161 150.096 84.7082 153.225C84.2431 153.783 83.6776 154.018 83.1564 154.018C82.6351 154.018 82.0696 153.783 81.6045 153.225C78.9965 150.096 74.1911 150.096 71.5832 153.225C71.1181 153.783 70.5526 154.018 70.0314 154.018C69.5101 154.018 68.9446 153.783 68.4795 153.225C65.8715 150.096 61.0661 150.096 58.4582 153.225C57.9931 153.783 57.4276 154.018 56.9064 154.018C56.3851 154.018 55.8196 153.783 55.3545 153.225C52.7466 150.097 47.9412 150.096 45.3332 153.224C44.6573 154.035 43.734 154.206 42.9738 153.824Z" fill="url(#paint0_linear_1_97)" stroke="url(#paint1_linear_1_97)" stroke-width="2"/>
<path d="M76.5937 63.0197C74.7864 63.0197 73.3125 61.2553 73.3125 59.0837C73.3125 56.9121 74.7864 55.1478 76.5937 55.1478C78.4011 55.1478 79.875 56.9121 79.875 59.0837C79.875 61.2592 81.3426 63.0197 83.1562 63.0197C84.9699 63.0197 86.4375 61.2592 86.4375 59.0837C86.4375 53.9591 83.6865 49.6312 79.875 48.0009V43.34C79.875 41.1645 78.4074 39.4041 76.5937 39.4041C74.7801 39.4041 73.3125 41.1645 73.3125 43.34V48.0009C69.501 49.6312 66.75 53.9591 66.75 59.0837C66.75 65.5948 71.1657 70.8915 76.5937 70.8915C78.4011 70.8915 79.875 72.6559 79.875 74.8274C79.875 76.999 78.4011 78.7634 76.5937 78.7634C74.7864 78.7634 73.3125 76.999 73.3125 74.8274C73.3125 72.6519 71.8449 70.8915 70.0312 70.8915C68.2176 70.8915 66.75 72.6519 66.75 74.8274C66.75 79.952 69.501 84.28 73.3125 85.9102V90.5712C73.3125 92.7467 74.7801 94.5071 76.5937 94.5071C78.4074 94.5071 79.875 92.7467 79.875 90.5712V85.9102C83.6865 84.2802 86.4375 79.952 86.4375 74.8274C86.4375 68.3164 82.022 63.0197 76.5937 63.0197ZM76.5937 102.379H56.9062C55.0926 102.379 53.625 104.139 53.625 106.315C53.625 108.49 55.0926 110.251 56.9062 110.251H76.5937C78.4074 110.251 79.875 108.49 79.875 106.315C79.875 104.139 78.4074 102.379 76.5937 102.379ZM76.5937 118.123H56.9062C55.0926 118.123 53.625 119.883 53.625 122.059C53.625 124.234 55.0926 125.995 56.9062 125.995H76.5937C78.4074 125.995 79.875 124.234 79.875 122.059C79.875 119.883 78.4074 118.123 76.5937 118.123ZM89.7187 110.251H96.2812C98.0949 110.251 99.5625 108.49 99.5625 106.315C99.5625 104.139 98.0949 102.379 96.2812 102.379H89.7187C87.9051 102.379 86.4375 104.139 86.4375 106.315C86.4375 108.49 87.9051 110.251 89.7187 110.251ZM96.2812 118.123H89.7187C87.9051 118.123 86.4375 119.883 86.4375 122.059C86.4375 124.234 87.9051 125.995 89.7187 125.995H96.2812C98.0949 125.995 99.5625 124.234 99.5625 122.059C99.5625 119.883 98.0949 118.123 96.2812 118.123Z" fill="white"/>
</g>
<defs>
<filter id="filter0_dd_1_97" x="0.5" y="0.673096" width="152.188" height="214.347" filterUnits="userSpaceOnUse" color-interpolation-filters="sRGB">
<feFlood flood-opacity="0" result="BackgroundImageFix"/>
<feColorMatrix in="SourceAlpha" type="matrix" values="0 0 0 0 0 0 0 0 0 0 0 0 0 0 0 0 0 0 127 0" result="hardAlpha"/>
<feOffset dy="20"/>
<feGaussianBlur stdDeviation="20"/>
<feColorMatrix type="matrix" values="0 0 0 0 1 0 0 0 0 0.680498 0 0 0 0 0 0 0 0 0.29 0"/>
<feBlend mode="normal" in2="BackgroundImageFix" result="effect1_dropShadow_1_97"/>
<feColorMatrix in="SourceAlpha" type="matrix" values="0 0 0 0 0 0 0 0 0 0 0 0 0 0 0 0 0 0 127 0" result="hardAlpha"/>
<feOffset dy="5"/>
<feGaussianBlur stdDeviation="5"/>
<feColorMatrix type="matrix" values="0 0 0 0 1 0 0 0 0 0.680498 0 0 0 0 0 0 0 0 0.26 0"/>
<feBlend mode="normal" in2="effect1_dropShadow_1_97" result="effect2_dropShadow_1_97"/>
<feBlend mode="normal" in="SourceGraphic" in2="effect2_dropShadow_1_97" result="shape"/>
</filter>
<linearGradient id="paint0_linear_1_97" x1="76.5939" y1="-30.6695" x2="76.5939" y2="199.944" gradientUnits="userSpaceOnUse">
<stop offset="0.630208" stop-color="#FFAE00"/>
<stop offset="1" stop-color="#FFCD1E"/>
</linearGradient>
<linearGradient id="paint1_linear_1_97" x1="76.5939" y1="20.6731" x2="76.5939" y2="155.02" gradientUnits="userSpaceOnUse">
<stop stop-color="#FF9F00"/>
<stop offset="1" stop-color="#FFB800"/>
</linearGradient>
</defs>
</svg>
