<svg width="51" height="69" viewBox="0 0 51 69" fill="none" xmlns="http://www.w3.org/2000/svg">
<path d="M50.3167 38.9754C50.3167 36.6191 48.7206 34.7125 46.7481 34.7125H43.1795V30.4496C43.1795 20.1572 37.0413 11.5469 28.9051 9.56638V4.87205C28.9051 2.51579 27.309 0.609131 25.3365 0.609131C23.364 0.609131 21.7679 2.51579 21.7679 4.87205V9.56638C13.6318 11.5469 7.49352 20.1572 7.49352 30.4496V34.7125H3.92493C1.95244 34.7125 0.356323 36.6191 0.356323 38.9754C0.356323 41.3317 1.95244 43.2383 3.92493 43.2383H46.7481C48.7206 43.2383 50.3167 41.3317 50.3167 38.9754ZM39.6109 60.29H11.0621C9.08964 60.29 7.49352 62.1966 7.49352 64.5529C7.49352 66.9092 9.08964 68.8158 11.0621 68.8158H39.6109C41.5834 68.8158 43.1795 66.9092 43.1795 64.5529C43.1795 62.1966 41.5834 60.29 39.6109 60.29Z" fill="white"/>
</svg>
